<?xml version="1.0" standalone="no"?><!DOCTYPE svg PUBLIC "-//W3C//DTD SVG 1.1//EN" "http://www.w3.org/Graphics/SVG/1.1/DTD/svg11.dtd"><svg t="1640533950169" class="icon" viewBox="0 0 1024 1024" version="1.1" xmlns="http://www.w3.org/2000/svg" p-id="19899" xmlns:xlink="http://www.w3.org/1999/xlink" width="128" height="128"><defs><style type="text/css"></style></defs><path d="M793.6 819.2a51.2 51.2 0 1 1 0 102.4h-614.4a51.2 51.2 0 0 1 0-102.4h614.4z m-307.2-563.2a307.2 307.2 0 0 1 307.2 307.2v204.8h-614.4v-204.8a307.2 307.2 0 0 1 307.2-307.2z m51.2 102.4l-153.6 153.6H460.8l-25.6 153.6 153.6-153.6-76.8-0.0512L537.6 358.4zM138.1376 232.448l4.096 2.2528 76.8 51.2a25.6 25.6 0 0 1-24.3712 44.8l-4.096-2.2016-76.8-51.2a25.6 25.6 0 0 1 24.3712-44.8z m727.9616 9.3696a25.6 25.6 0 0 1-3.4816 32.5632l-3.584 2.9184-76.8 51.2-4.096 2.2016a25.6 25.6 0 0 1-27.9552-41.8816l3.584-2.9184 76.8-51.2 4.096-2.2016a25.6 25.6 0 0 1 31.4368 9.3184zM300.032 110.2336l2.8672 3.584 51.2 76.8a25.6 25.6 0 0 1-39.68 32l-2.9184-3.584-51.2-76.8a25.6 25.6 0 0 1 39.7312-32.0512z m405.3504-3.5328a25.6 25.6 0 0 1 9.3184 31.4368l-2.2016 4.096-51.2 76.8-2.8672 3.584a25.6 25.6 0 0 1-41.984-27.9552l2.2528-4.096 51.2-76.8 2.9184-3.584a25.6 25.6 0 0 1 32.5632-3.4816zM486.4 51.2a25.6 25.6 0 0 1 25.1904 20.992L512 76.8v102.4a25.6 25.6 0 0 1-50.7904 4.608L460.8 179.2v-102.4a25.6 25.6 0 0 1 25.6-25.6z" p-id="19900"></path></svg>