<?xml version="1.0" standalone="no"?><!DOCTYPE svg PUBLIC "-//W3C//DTD SVG 1.1//EN" "http://www.w3.org/Graphics/SVG/1.1/DTD/svg11.dtd"><svg t="1696736330576" class="icon" viewBox="0 0 1024 1024" version="1.1" xmlns="http://www.w3.org/2000/svg" p-id="6319" xmlns:xlink="http://www.w3.org/1999/xlink" width="200" height="200"><path d="M512.42 920.16c-88.25 0-176.5-6.43-264.14-19.28l-0.26-0.04c-30.68-4.81-61.57-21.45-86.98-46.85-25.41-25.41-42.05-56.3-46.85-86.98l-0.04-0.26a1818.793 1818.793 0 0 1 0-528.28l0.04-0.26c4.81-30.68 21.44-61.57 46.85-86.98 25.41-25.41 56.3-42.05 86.98-46.85l0.26-0.04a1818.793 1818.793 0 0 1 528.28 0l0.26 0.04c30.68 4.81 61.57 21.44 86.98 46.85s42.05 56.3 46.85 86.98l0.04 0.26a1818.793 1818.793 0 0 1 0 528.28l-0.04 0.26c-4.81 30.68-21.44 61.57-46.85 86.98-25.41 25.41-56.3 42.05-86.98 46.85l-0.26 0.04a1820.45 1820.45 0 0 1-264.14 19.28z m-256.03-73.69c169.89 24.91 342.15 24.91 512.05 0 39.74-6.3 81.56-48.12 87.86-87.86 24.9-169.87 24.9-342.16 0-512.03-6.3-39.75-48.12-81.57-87.86-87.86a1764.188 1764.188 0 0 0-512.03 0c-39.74 6.3-81.57 48.12-87.86 87.86a1764.188 1764.188 0 0 0 0 512.03c6.28 39.74 48.1 81.56 87.84 87.86z" fill="#64A0CF" p-id="6320"></path><path d="M626.33 337.19L416.49 547.03c-10.19 10.19-26.72 10.19-36.92 0l-12.58-12.58c-10.19-10.19-10.19-26.72 0-36.92l209.84-209.84c10.19-10.19 26.72-10.19 36.92 0l12.58 12.58c10.19 10.19 10.19 26.72 0 36.92z" fill="#9EEFD9" p-id="6321"></path><path d="M627.01 731.07l-12.58 12.58c-10.19 10.19-26.72 10.19-36.92 0L367.67 533.81c-10.19-10.19-10.19-26.72 0-36.92l12.58-12.58c10.19-10.19 26.72-10.19 36.92 0l209.84 209.84c10.19 10.2 10.19 26.72 0 36.92z" fill="#9EEFD9" p-id="6322"></path></svg>