<?xml version="1.0" standalone="no"?><!DOCTYPE svg PUBLIC "-//W3C//DTD SVG 1.1//EN" "http://www.w3.org/Graphics/SVG/1.1/DTD/svg11.dtd"><svg t="1646631871952" class="icon" viewBox="0 0 1024 1024" version="1.1" xmlns="http://www.w3.org/2000/svg" p-id="22032" xmlns:xlink="http://www.w3.org/1999/xlink" width="128" height="128"><defs><style type="text/css"></style></defs><path d="M581.616221 423.19292q-46.215929 19.030088-84.729204 50.746903t-66.60531 72.495575-43.497345 89.260177-15.40531 101.946903q0 47.122124 12.233628 90.166372t33.982301 81.104425l-24.467257 0q-26.279646 0-61.168142-1.812389t-72.042478-4.984071-73.854867-7.249558-66.60531-8.60885-50.746903-9.061947-26.279646-9.061947q-9.968142-7.249558-14.952212-44.856637t4.077876-96.509735q3.624779-22.654867 14.952212-37.153982t27.638938-24.920354 36.247788-16.764602 40.778761-12.233628 40.325664-12.686726 35.79469-16.764602q19.030088-11.780531 29.451327-23.107965t14.952212-22.20177 4.530973-22.654867-0.906195-26.279646q-1.812389-20.842478-14.499115-33.076106t-28.092035-24.920354q-7.249558-6.343363-13.139823-17.670796t-10.421239-23.107965q-4.530973-13.59292-9.061947-28.092035-6.343363-1.812389-12.686726-6.343363-5.437168-4.530973-11.780531-12.686726t-10.874336-23.561062-3.624779-28.092035 5.437168-22.654867q3.624779-9.968142 11.780531-19.030088 0-34.435398 3.624779-68.870796 3.624779-28.99823 12.686726-62.527434t28.092035-59.80885q18.123894-25.373451 38.966372-41.231858t43.497345-24.920354 44.856637-12.233628 43.044248-3.171681q26.279646 0 52.106195 5.890265t48.481416 15.858407 40.325664 22.654867 27.638938 25.373451q23.561062 28.99823 34.435398 63.886726t15.40531 66.60531q4.530973 36.247788 4.530973 73.40177 6.343363 4.530973 9.968142 11.780531 3.624779 6.343363 5.890265 16.311504t0.453097 24.467257q-1.812389 19.936283-7.702655 31.263717t-13.139823 17.670796q-8.155752 7.249558-17.217699 9.968142-1.812389 5.437168-3.624779 11.780531l-4.530973 12.686726q-1.812389 6.343363-4.530973 13.59292zM711.202061 452.19115q58.902655 0 111.00885 22.654867t90.619469 61.621239 61.168142 91.072566 22.654867 111.00885-22.654867 111.00885-61.168142 91.072566-90.619469 61.168142-111.00885 22.20177q-59.80885 0-111.915044-22.20177t-90.619469-61.168142-61.168142-91.072566-22.654867-111.00885 22.654867-111.00885 61.168142-91.072566 90.619469-61.621239 111.915044-22.654867zM877.941884 682.364602q5.437168-18.123894-4.984071-33.076106t-27.638938-21.295575-34.435398-0.906195-25.373451 28.092035q-4.530973 15.40531-8.60885 28.545133t-8.155752 27.638938-9.968142 31.263717-14.952212 38.513274q-9.061947 23.561062-25.826549 22.20177t-25.826549-19.483186q-9.968142-18.123894-18.576991-38.966372t-16.764602-40.778761-14.499115-36.247788-10.874336-26.279646q-7.249558-14.499115-24.014159-16.311504t-32.623009 4.984071-26.279646 21.295575-3.171681 31.716814q6.343363 18.123894 14.499115 40.778761t17.217699 46.215929 17.217699 46.215929 14.499115 38.966372q13.59292 34.435398 41.231858 51.653097t57.99646 18.123894 57.99646-13.59292 40.325664-43.497345q9.968142-23.561062 20.389381-49.387611t19.936283-50.293805 17.670796-47.122124 13.59292-38.966372z" p-id="22033"></path></svg>