<?xml version="1.0" standalone="no"?><!DOCTYPE svg PUBLIC "-//W3C//DTD SVG 1.1//EN" "http://www.w3.org/Graphics/SVG/1.1/DTD/svg11.dtd"><svg t="1676963808794" class="icon" viewBox="0 0 1024 1024" version="1.1" xmlns="http://www.w3.org/2000/svg" p-id="11069" width="128" height="128" xmlns:xlink="http://www.w3.org/1999/xlink"><path d="M885.1 962.6H139.5c-42.2 0-76.6-34.3-76.6-76.6V140.4c0-42.2 34.3-76.6 76.6-76.6h745.6c42.2 0 76.6 34.3 76.6 76.6V886c-0.1 42.2-34.4 76.6-76.6 76.6zM139.5 110.5c-16.5 0-30 13.4-30 30V886c0 16.5 13.4 30 30 30h745.6c16.5 0 30-13.4 30-30V140.4c0-16.5-13.4-30-30-30H139.5z" fill="#1890ff" p-id="11070"></path><path d="M745.3 536.5h-466c-12.9 0-23.3-10.4-23.3-23.3s10.4-23.3 23.3-23.3h466c12.9 0 23.3 10.4 23.3 23.3s-10.4 23.3-23.3 23.3z" fill="#1890ff" p-id="11071"></path><path d="M512.3 769.5c-12.9 0-23.3-10.4-23.3-23.3v-466c0-12.9 10.4-23.3 23.3-23.3s23.3 10.4 23.3 23.3v466c0 12.9-10.4 23.3-23.3 23.3z" fill="#1890ff" p-id="11072"></path></svg>