<?xml version="1.0" standalone="no"?><!DOCTYPE svg PUBLIC "-//W3C//DTD SVG 1.1//EN" "http://www.w3.org/Graphics/SVG/1.1/DTD/svg11.dtd"><svg t="1621329968340" class="icon" viewBox="0 0 1024 1024" version="1.1" xmlns="http://www.w3.org/2000/svg" p-id="13110" xmlns:xlink="http://www.w3.org/1999/xlink" width="200" height="200"><defs><style type="text/css"></style></defs><path d="M896 682.666667a42.666667 42.666667 0 0 0-42.666667-42.666667h-85.333333v-85.333333a85.333333 85.333333 0 0 0-85.333333-85.333334h-128V384h85.333333a42.666667 42.666667 0 0 0 42.666667-42.666667V170.666667a42.666667 42.666667 0 0 0-42.666667-42.666667H384a42.666667 42.666667 0 0 0-42.666667 42.666667v170.666666a42.666667 42.666667 0 0 0 42.666667 42.666667h85.333333v85.333333H341.333333a85.333333 85.333333 0 0 0-85.333333 85.333334v85.333333H170.666667a42.666667 42.666667 0 0 0-42.666667 42.666667v170.666666a42.666667 42.666667 0 0 0 42.666667 42.666667h256a42.666667 42.666667 0 0 0 42.666666-42.666667v-170.666666a42.666667 42.666667 0 0 0-42.666666-42.666667H341.333333v-85.333333h341.333334v85.333333h-85.333334a42.666667 42.666667 0 0 0-42.666666 42.666667v170.666666a42.666667 42.666667 0 0 0 42.666666 42.666667h256a42.666667 42.666667 0 0 0 42.666667-42.666667z" p-id="13111"></path></svg>