<?xml version="1.0" standalone="no"?><!DOCTYPE svg PUBLIC "-//W3C//DTD SVG 1.1//EN" "http://www.w3.org/Graphics/SVG/1.1/DTD/svg11.dtd"><svg t="1640528385068" class="icon" viewBox="0 0 1024 1024" version="1.1" xmlns="http://www.w3.org/2000/svg" p-id="10352" xmlns:xlink="http://www.w3.org/1999/xlink" width="128" height="128"><defs><style type="text/css"></style></defs><path d="M874.7 615.6h-50.2V486.1c0-10.7-8.7-19.4-19.4-19.4H531.4v-58.3h84.2c28.6 0 51.8-23.2 51.8-51.8V149.3c0-28.6-23.2-51.8-51.8-51.8H408.4c-28.6 0-51.8 23.2-51.8 51.8v207.2c0 28.6 23.2 51.8 51.8 51.8h84.2v58.3H219c-10.7 0-19.4 8.7-19.4 19.4v129.5h-50.3c-28.6 0-51.8 23.2-51.8 51.8v207.2c0 28.6 23.2 51.8 51.8 51.8h207.2c28.6 0 51.8-23.2 51.8-51.8V667.4c0-28.6-23.2-51.8-51.8-51.8H238.4V505.5h547.3v110.1H667.4c-28.6 0-51.8 23.2-51.8 51.8v207.2c0 28.6 23.2 51.8 51.8 51.8h207.2c28.6 0 51.8-23.2 51.8-51.8V667.4c0.1-28.6-23.1-51.8-51.7-51.8z" p-id="10353"></path></svg>