<?xml version="1.0" standalone="no"?><!DOCTYPE svg PUBLIC "-//W3C//DTD SVG 1.1//EN" "http://www.w3.org/Graphics/SVG/1.1/DTD/svg11.dtd"><svg t="1667669082784" class="icon" viewBox="0 0 1024 1024" version="1.1" xmlns="http://www.w3.org/2000/svg" p-id="14339" xmlns:xlink="http://www.w3.org/1999/xlink" width="128" height="128"><path d="M853.333333 682.666667a128 128 0 0 0-73.813333 23.893333l-104.533333-61.866667A159.573333 159.573333 0 0 0 682.666667 597.333333a170.666667 170.666667 0 0 0-128-164.693333V333.653333a128 128 0 1 0-85.333334 0v98.986667A170.666667 170.666667 0 0 0 341.333333 597.333333c0.170667 16.085333 2.730667 32.042667 7.68 47.36l-104.533333 61.866667A128 128 0 0 0 170.666667 682.666667a128 128 0 1 0 128 128 128 128 0 0 0-5.12-34.133334l98.133333-58.453333a170.666667 170.666667 0 0 0 240.64 0l98.133333 58.453333A128 128 0 1 0 853.333333 682.666667zM170.666667 853.333333a42.666667 42.666667 0 1 1 0-85.333333 42.666667 42.666667 0 0 1 0 85.333333z m341.333333-682.666666a42.666667 42.666667 0 1 1 0 85.333333 42.666667 42.666667 0 0 1 0-85.333333z m0 512a85.333333 85.333333 0 1 1 0-170.666667 85.333333 85.333333 0 0 1 0 170.666667z m341.333333 170.666666a42.666667 42.666667 0 1 1 0-85.333333 42.666667 42.666667 0 0 1 0 85.333333z" p-id="14340"></path></svg>