<?xml version="1.0" standalone="no"?><!DOCTYPE svg PUBLIC "-//W3C//DTD SVG 1.1//EN" "http://www.w3.org/Graphics/SVG/1.1/DTD/svg11.dtd"><svg t="1646373006802" class="icon" viewBox="0 0 1024 1024" version="1.1" xmlns="http://www.w3.org/2000/svg" p-id="18419" xmlns:xlink="http://www.w3.org/1999/xlink" width="128" height="128"><defs><style type="text/css"></style></defs><path d="M928 543.8h-95.8c-17.6 0-32 14.4-32 32v255.9c0 17.6 14.4 32 32 32H928c17.6 0 32-14.4 32-32V575.8c0-17.6-14.4-32-32-32zM871.8 841c0-5.8 4.7-10.5 10.5-10.5s10.5 4.7 10.5 10.5-4.7 10.5-10.5 10.5-10.5-4.7-10.5-10.5z m77.8-25.7h-139V587.4h139v227.9z" fill="#dbdbdb" p-id="18420"></path><path d="M800.7 448.2a32.2 32.1 0 1 0 64.4 0 32.2 32.1 0 1 0-64.4 0Z" fill="#dbdbdb" p-id="18421"></path><path d="M800.7 317.4v2.4c0 17.7 14.4 32.1 32.2 32.1s32.2-14.4 32.2-32.1c0-0.8 0-1.6-0.1-2.4h0.1V191.3c0-35.2-28.8-64-64-64H128.3c-35.2 0-64 28.8-64 64V640c0 35.2 28.8 64 64 64h302.1v127.7h-155c-17.6 0-32 14.4-32 32s14.4 32 32 32H657c17.5 0 31.9-14.4 32-32 0-17.6-14.4-32-32-32H498V704h206.7v-0.1c17.7-0.2 31.9-14.4 31.9-32.1 0-17.6-14.3-31.9-31.9-32.1H160.8c-17.6 0-32-14.4-32-32V223.8c0-17.6 14.4-32 32-32h607.9c17.6 0 32 14.4 32 32v93.6z" fill="#dbdbdb" p-id="18422"></path></svg>