<?xml version="1.0" standalone="no"?><!DOCTYPE svg PUBLIC "-//W3C//DTD SVG 1.1//EN" "http://www.w3.org/Graphics/SVG/1.1/DTD/svg11.dtd"><svg t="1646632012192" class="icon" viewBox="0 0 1024 1024" version="1.1" xmlns="http://www.w3.org/2000/svg" p-id="23210" xmlns:xlink="http://www.w3.org/1999/xlink" width="128" height="128"><defs><style type="text/css"></style></defs><path d="M512 0a512 512 0 1 0 512 512A512 512 0 0 0 512 0z m-58.006042 771.609265a88.169184 88.169184 0 0 1-121.941591 25.780463L216.040282 721.852971a88.426989 88.426989 0 0 1-25.780463-121.941591l150.042296-232.02417a88.684794 88.684794 0 0 1 122.199396-25.780463l116.012084 75.021148a88.426989 88.426989 0 0 1 25.780463 122.199396l-25.780463-16.757301a57.490433 57.490433 0 0 0-17.015106-79.661631l-116.012084-75.021149a57.748238 57.748238 0 0 0-79.661632 17.015106l-150.042296 232.024169A58.006042 58.006042 0 0 0 232.024169 696.072508l116.269889 74.763343a57.490433 57.490433 0 0 0 79.661632-16.757301L482.868077 670.292044l25.780463 16.499497z m380.004028-395.472306l-149.784492 232.024169a88.169184 88.169184 0 0 1-74.247734 40.475327 87.137966 87.137966 0 0 1-47.693857-14.179255l-116.269889-75.536757a88.942598 88.942598 0 0 1-38.41289-55.685801 87.653575 87.653575 0 0 1 12.116818-66.513595l25.780463 16.757301a58.006042 58.006042 0 0 0-7.21853 43.311179 56.717019 56.717019 0 0 0 25.780463 36.350453l116.012085 75.278953a58.006042 58.006042 0 0 0 79.661631-17.272911l149.784492-232.024169a57.748238 57.748238 0 0 0-16.757301-79.661631l-117.558913-74.763344a57.748238 57.748238 0 0 0-79.661631 17.015106L541.389728 305.756294l-25.780463-16.499496L569.748238 206.243706a88.426989 88.426989 0 0 1 122.199395-25.780463l116.012085 75.021148a88.169184 88.169184 0 0 1 25.780463 122.199396z" p-id="23211"></path></svg>