<?xml version="1.0" standalone="no"?><!DOCTYPE svg PUBLIC "-//W3C//DTD SVG 1.1//EN" "http://www.w3.org/Graphics/SVG/1.1/DTD/svg11.dtd"><svg t="1640528598588" class="icon" viewBox="0 0 1280 1024" version="1.1" xmlns="http://www.w3.org/2000/svg" p-id="16798" xmlns:xlink="http://www.w3.org/1999/xlink" width="160" height="128"><defs><style type="text/css"></style></defs><path d="M153.64583333 62h984.375C1176.87083362 62 1208.33333333 93.5 1208.33333333 132.3125v205.49999971c0 38.85000029-31.5 70.35000029-70.3125 70.35000029H153.64583333A70.3125 70.3125 0 0 1 83.33333333 337.85V132.3125C83.33333333 93.46249971 114.83333333 62 153.64583333 62z m104.92499971 138.44999971a34.61249971 34.61249971 0 0 0 0 69.22500029h212.02500058a34.61249971 34.61249971 0 0 0 0-69.22500029H258.57083304zM153.64583333 615.87500029h984.375c38.85000029 0 70.3125 31.5 70.3125 70.3125v205.5375C1208.33333333 930.53750029 1176.83333333 962 1138.02083333 962H153.64583333A70.3125 70.3125 0 0 1 83.33333333 891.6875v-205.49999971c0-38.85000029 31.5-70.35000029 70.3125-70.35000029z m104.92499971 138.4875a34.61249971 34.61249971 0 1 0 0 69.22499942h212.02500058a34.61249971 34.61249971 0 1 0 0-69.22499942H258.57083304z" p-id="16799"></path></svg>