<?xml version="1.0" standalone="no"?><!DOCTYPE svg PUBLIC "-//W3C//DTD SVG 1.1//EN" "http://www.w3.org/Graphics/SVG/1.1/DTD/svg11.dtd"><svg t="1646372768874" class="icon" viewBox="0 0 1024 1024" version="1.1" xmlns="http://www.w3.org/2000/svg" p-id="14319" xmlns:xlink="http://www.w3.org/1999/xlink" width="128" height="128"><defs><style type="text/css"></style></defs><path d="M317.103 429.404c11.571-11.54 30.262-11.654 41.966-0.256l237.208 231.007c11.946 11.637 12.058 30.801 0.247 42.582l-95.872 95.626c-77.416 77.416-192.408 92.605-270.707 38.009L120.038 946.246c-11.676 11.672-30.606 11.672-42.281 0-11.49-11.487-11.673-29.998-0.547-41.708l0.547-0.562 109.67-109.64c-55.967-78.326-41.111-194.39 36.848-272.35z m21.35 63.133l-71.916 71.723-1.883 1.912c-61.82 63.543-67.918 156.28-16.193 208.005 52.247 52.247 146.34 45.498 209.949-18.11l74.42-74.23-194.377-189.3z m613.79-422.783c11.49 11.487 11.673 29.998 0.547 41.708l-0.547 0.562-109.11 109.084c57.203 78.339 42.65 195.365-35.795 273.81L714.51 587.5c-11.57 11.54-30.261 11.655-41.966 0.256L626.8 543.208l-18.078 18.075c-11.676 11.673-30.606 11.673-42.281 0-11.49-11.487-11.673-29.998-0.548-41.708l0.548-0.561 17.524-17.521-61.698-60.085-20.092 20.087c-11.675 11.672-30.605 11.672-42.28 0-11.49-11.487-11.673-29.998-0.548-41.708l0.547-0.562 19.538-19.532-44.096-42.943c-11.826-11.52-12.054-30.42-0.598-42.227l0.351-0.355 95.872-95.626c76.927-76.927 190.955-92.411 269.218-39.036L909.962 69.754c11.676-11.672 30.606-11.672 42.281 0z m-169.09 172.973c-52.248-52.247-146.34-45.498-209.95 18.111l-74.42 74.231 194.377 189.3 71.937-71.748 1.862-1.889c61.82-63.543 67.918-156.28 16.193-208.005z" fill="#ffffff" p-id="14320"></path></svg>