<?xml version="1.0" standalone="no"?><!DOCTYPE svg PUBLIC "-//W3C//DTD SVG 1.1//EN" "http://www.w3.org/Graphics/SVG/1.1/DTD/svg11.dtd"><svg t="1654508296100" class="icon" viewBox="0 0 1024 1024" version="1.1" xmlns="http://www.w3.org/2000/svg" p-id="19419" xmlns:xlink="http://www.w3.org/1999/xlink" width="128" height="128"><defs><style type="text/css">@font-face { font-family: feedback-iconfont; src: url("//at.alicdn.com/t/font_1031158_u69w8yhxdu.woff2?t=1630033759944") format("woff2"), url("//at.alicdn.com/t/font_1031158_u69w8yhxdu.woff?t=1630033759944") format("woff"), url("//at.alicdn.com/t/font_1031158_u69w8yhxdu.ttf?t=1630033759944") format("truetype"); }
</style></defs><path d="M942.102 904.571c-21.954 35.544-57.556 55.418-99.308 55.418H181.195c-41.752 0-77.35-19.874-99.3-55.418-21.945-35.544-23.78-76.303-5.111-113.685l330.8-662.296c20.324-40.686 58.976-64.597 104.411-64.597 45.448 0 84.095 23.91 104.411 64.597L947.21 790.886c18.673 37.382 16.838 78.142-5.108 113.685zM608 448H416c-17.673 0-32 14.327-32 32 0 17.673 14.327 32 32 32h192c17.673 0 32-14.327 32-32 0-17.673-14.327-32-32-32z m32 128H384c-17.673 0-32 14.327-32 32s14.327 32 32 32h256c17.673 0 32-14.327 32-32s-14.327-32-32-32z m32 128H352c-17.673 0-32 14.327-32 32s14.327 32 32 32h320c17.673 0 32-14.327 32-32s-14.327-32-32-32z" p-id="19420"></path></svg>