<?xml version="1.0" encoding="UTF-8"?>
<svg width="16px" height="16px" viewBox="0 0 16 16" version="1.1" xmlns="http://www.w3.org/2000/svg" xmlns:xlink="http://www.w3.org/1999/xlink">
    <path d="M8,1 C11.8659932,1 15,4.13400675 15,8 C15,11.8659932 11.8659932,15 8,15 C4.13400675,15 1,11.8659932 1,8 C1,4.13400675 4.13400675,1 8,1 Z M9.99190372,8.50131193 L6.00809628,8.50131193 C6.05866848,10.0621498 6.3438261,11.4964981 6.79782469,12.5558282 C7.21659494,13.5329588 7.68982759,14 8,14 C8.31017241,14 8.78340506,13.5329588 9.20217531,12.5558282 C9.6561739,11.4964981 9.94133152,10.0621498 9.99190372,8.50131193 Z M5.00755213,8.50056098 L2.02061151,8.50090367 C2.22703857,10.9985235 3.96324115,13.0622309 6.28999965,13.7528062 C5.5657829,12.5787023 5.07345663,10.6770109 5.00755213,8.50056098 Z M13.9793885,8.50090367 L10.9924479,8.50056098 C10.9265434,10.6770109 10.4342171,12.5787023 9.70923696,13.7535099 C12.0367588,13.0622309 13.7729614,10.9985235 13.9793885,8.50090367 Z M6.29076304,2.24649006 L6.26712071,2.25403417 C3.95155645,2.9514068 2.22589888,5.01022147 2.02052886,7.50009733 L5.007522,7.50043503 C5.07330643,5.32356926 5.56567231,3.42147692 6.29076304,2.24649006 Z M8,2 C7.68982759,2 7.21659494,2.46704125 6.79782469,3.44417183 C6.34372889,4.5037287 6.05854637,5.93846447 6.00806383,7.49969077 L9.99193617,7.49969077 C9.94145363,5.93846447 9.65627111,4.5037287 9.20217531,3.44417183 C8.81132308,2.53218328 8.37302804,2.06453923 8.06414417,2.00623997 L8,2 Z M9.71000035,2.2471938 L9.73522769,2.28908358 C10.4460778,3.46714611 10.9274826,5.34967989 10.992478,7.50043503 L13.9794711,7.50009733 C13.7734253,5.00202792 12.0370697,2.9378614 9.71000035,2.2471938 Z" id="fe-globe" fill-rule="nonzero"></path>
</svg>