<?xml version="1.0" standalone="no"?><!DOCTYPE svg PUBLIC "-//W3C//DTD SVG 1.1//EN" "http://www.w3.org/Graphics/SVG/1.1/DTD/svg11.dtd"><svg t="1640528461166" class="icon" viewBox="0 0 1024 1024" version="1.1" xmlns="http://www.w3.org/2000/svg" p-id="12217" xmlns:xlink="http://www.w3.org/1999/xlink" width="128" height="128"><defs><style type="text/css"></style></defs><path d="M107.52 209.92h89.088c25.6 0 46.08-20.48 46.08-46.08s-20.48-46.08-46.08-46.08h-89.088c-55.296 0-100.352 45.056-100.352 100.352v586.752c0 55.296 45.056 100.352 100.352 100.352h89.088c25.6 0 46.08-20.48 46.08-46.08s-20.48-46.08-46.08-46.08h-89.088c-5.12 0-8.192-4.096-8.192-8.192V558.08h97.28c25.6 0 46.08-20.48 46.08-46.08s-20.48-46.08-46.08-46.08H99.328V218.112c0-4.096 3.072-8.192 8.192-8.192zM974.848 389.12H345.088c-23.552 0-43.008 19.456-43.008 43.008v160.768c0 23.552 19.456 43.008 43.008 43.008h628.736c23.552 0 43.008-19.456 43.008-43.008V432.128c0-23.552-18.432-43.008-41.984-43.008zM422.912 543.744c0 9.216-8.192 16.384-18.432 16.384h-1.024-1.024c-9.216 0-16.384-7.168-16.384-16.384v-63.488c0-9.216 7.168-16.384 16.384-16.384h2.048c10.24 0 18.432 7.168 18.432 16.384v63.488z m512-23.552c0 22.528-17.408 39.936-39.936 39.936H547.84c-22.528 0-39.936-17.408-39.936-39.936v-16.384c0-22.528 17.408-39.936 39.936-39.936h347.136c22.528 0 39.936 17.408 39.936 39.936v16.384zM974.848 33.792H345.088c-23.552 0-43.008 19.456-43.008 43.008v160.768c0 23.552 19.456 43.008 43.008 43.008h628.736c23.552 0 43.008-19.456 43.008-43.008V75.776c0-23.552-18.432-41.984-41.984-41.984zM422.912 188.416c0 9.216-8.192 16.384-18.432 16.384h-1.024-1.024c-9.216 0-16.384-7.168-16.384-16.384v-63.488c0-9.216 7.168-16.384 16.384-16.384h2.048c10.24 0 18.432 7.168 18.432 16.384v63.488z m512-23.552c0 22.528-17.408 39.936-39.936 39.936H547.84c-22.528 0-39.936-17.408-39.936-39.936v-16.384c0-22.528 17.408-39.936 39.936-39.936h347.136c22.528 0 39.936 17.408 39.936 39.936v16.384zM974.848 745.472H345.088c-23.552 0-43.008 19.456-43.008 43.008v160.768c0 23.552 19.456 43.008 43.008 43.008h628.736c23.552 0 43.008-19.456 43.008-43.008V787.456c0-23.552-18.432-41.984-41.984-41.984zM422.912 900.096c0 9.216-8.192 16.384-18.432 16.384h-1.024-1.024c-9.216 0-16.384-7.168-16.384-16.384v-63.488c0-9.216 7.168-16.384 16.384-16.384h2.048c10.24 0 18.432 7.168 18.432 16.384v63.488z m512-23.552c0 22.528-17.408 39.936-39.936 39.936H547.84c-22.528 0-39.936-17.408-39.936-39.936V860.16c0-22.528 17.408-39.936 39.936-39.936h347.136c22.528 0 39.936 17.408 39.936 39.936v16.384z" p-id="12218"></path></svg>