<?xml version="1.0" standalone="no"?><!DOCTYPE svg PUBLIC "-//W3C//DTD SVG 1.1//EN" "http://www.w3.org/Graphics/SVG/1.1/DTD/svg11.dtd"><svg t="1621330831603" class="icon" viewBox="0 0 1024 1024" version="1.1" xmlns="http://www.w3.org/2000/svg" p-id="27504" xmlns:xlink="http://www.w3.org/1999/xlink" width="200" height="200"><defs><style type="text/css"></style></defs><path d="M532.038 0.41c-72.843-2.902-147.462 9.781-219.07 40.003-71.612 30.223-132.753 74.836-181.491 129.051 72.432-1.391 145.775-16.28 216.488-46.125C418.679 93.494 480.512 51.335 532.038 0.41zM441.627 345.266c140.577-59.33 256.27-153.169 341.414-267.521a514.78 514.78 0 0 0-132.678-58.566 690.967 690.967 0 0 1-37.939 42.388c-64.186 66.02-140.084 117.793-225.586 153.878-85.501 36.086-175.545 54.347-267.624 54.274a690.536 690.536 0 0 1-56.838-2.386 514.877 514.877 0 0 0-50.598 135.916c141.329 18.772 289.272 1.346 429.849-57.983z" p-id="27505"></path><path d="M535.289 567.192c169.034-71.339 310.196-181.335 417.572-315.38-25.017-42.507-55.54-80.322-90.25-112.904a928.479 928.479 0 0 1-77.503 90.688c-86.659 89.14-189.144 159.047-304.608 207.777-115.463 48.729-237.044 73.388-361.367 73.29A929.085 929.085 0 0 1 0.091 502.928a508.255 508.255 0 0 0 17.933 143.423c170.947 16.582 348.231-7.821 517.265-79.159z" p-id="27506"></path><path d="M998.663 353.31a1163.002 1163.002 0 0 1-40.869 44.315c-109.135 112.26-238.211 200.3-383.632 261.674-145.423 61.376-298.545 92.431-455.112 92.308a1159.323 1159.323 0 0 1-60.26-1.633c28.541 54.499 65.835 101.974 109.398 141.4 154.353-5.572 310.229-38.724 460.763-102.255 150.535-63.533 283.03-152.085 394.704-258.787 2.141-58.714-5.854-118.554-24.992-177.022zM305.351 980.291c124.479 54.902 270.44 60.368 405.675 3.294 135.234-57.073 233.14-165.464 280.646-292.949-98.29 77.292-206.657 141.131-323.847 190.59-117.19 49.456-238.526 82.564-362.474 99.065z" p-id="27507"></path></svg>