<?xml version="1.0" standalone="no"?><!DOCTYPE svg PUBLIC "-//W3C//DTD SVG 1.1//EN" "http://www.w3.org/Graphics/SVG/1.1/DTD/svg11.dtd"><svg t="1646373053806" class="icon" viewBox="0 0 1264 1024" version="1.1" xmlns="http://www.w3.org/2000/svg" p-id="19028" xmlns:xlink="http://www.w3.org/1999/xlink" width="158" height="128"><defs><style type="text/css"></style></defs><path d="M1135.230625 547.617547a140.020149 140.020149 0 0 0-53.370909 12.557861l-5.023144-137.508577A448.315634 448.315634 0 0 0 604.033109 0.722705a448.315634 448.315634 0 0 0-439.525131 453.966671l5.023144 137.508577a140.020149 140.020149 0 0 0-53.998802-8.790503A106.113925 106.113925 0 0 0 0 681.986658l8.790503 251.157218a106.113925 106.113925 0 0 0 119.927571 89.788706A136.252791 136.252791 0 0 0 188.367913 1005.351577a30.766759 30.766759 0 0 0 26.371508 13.185754 31.394652 31.394652 0 0 0 30.138866-32.650439L225.413603 452.805697A385.52633 385.52633 0 0 1 606.544681 63.512009a385.52633 385.52633 0 0 1 407.502586 361.038501l18.836792 528.058051a31.394652 31.394652 0 0 0 53.998802 20.092577 135.624898 135.624898 0 0 0 62.789304 13.813647 106.113925 106.113925 0 0 0 113.020748-98.579208l-8.790503-251.157218a106.113925 106.113925 0 0 0-118.671785-89.160812zM125.578609 960.143277c-30.766759 0-54.626695-14.44154-54.626695-29.510973l-8.790503-251.157218c0-15.069433 21.976257-32.022545 52.743016-33.278331s53.370909 13.813647 54.626695 28.255187l8.790503 254.924576a53.998802 53.998802 0 0 1-52.743016 30.766759z m1074.325-69.696128c0 15.069433-21.976257 32.022545-52.743016 33.278332a53.998802 53.998802 0 0 1-53.998802-25.743615l-8.790503-255.552469c0-14.44154 22.60415-30.766759 52.743016-32.022546s54.626695 14.44154 54.626695 29.510973z" p-id="19029" fill="#dbdbdb"></path><path d="M621.614114 487.967708a31.394652 31.394652 0 0 0-30.138866 32.650438l13.185754 362.92218a31.394652 31.394652 0 1 0 62.789305 0l-13.185754-362.92218a31.394652 31.394652 0 0 0-32.650439-32.650438zM836.981429 335.389698a31.394652 31.394652 0 0 0-30.138866 32.650438l18.208898 507.965473a31.394652 31.394652 0 1 0 62.789304 0l-18.208898-507.965473a31.394652 31.394652 0 0 0-32.650438-32.650438zM406.2468 641.173611a31.394652 31.394652 0 0 0-30.138866 32.650438l7.534716 217.878886a31.394652 31.394652 0 1 0 62.789305 0L439.525131 671.312477a31.394652 31.394652 0 0 0-33.278331-30.138866z" p-id="19030" fill="#dbdbdb"></path></svg>