<?xml version="1.0" standalone="no"?><!DOCTYPE svg PUBLIC "-//W3C//DTD SVG 1.1//EN" "http://www.w3.org/Graphics/SVG/1.1/DTD/svg11.dtd"><svg t="1695807499295" class="icon" viewBox="0 0 1024 1024" version="1.1" xmlns="http://www.w3.org/2000/svg" p-id="3428" xmlns:xlink="http://www.w3.org/1999/xlink" width="200" height="200"><path d="M853.3248 1024H170.6752C76.8 1024 0 947.2 0 853.3248V170.6752C0 76.8 76.8 0 170.6752 0h682.6496C947.2 0 1024 76.8 1024 170.6752v682.6496C1024 947.2 947.2 1024 853.3248 1024z" fill="#3AC2B5" p-id="3429"></path><path d="M785.92 479.5648c-5.12-3.4048-11.0848-3.4048-17.0752-1.6896l-81.0496 35.84v-72.5504c0-19.6096-15.36-34.9696-34.9952-34.9696H265.3952c-9.3952 0-17.92 3.4048-24.7552 10.24-6.8352 6.8096-10.24 15.36-10.24 24.7296v281.6C230.4 742.4 245.76 757.76 265.3952 757.76H652.8c19.6352 0 34.9952-15.36 34.9952-34.9952V670.72l81.0496 35.84c5.12 2.56 11.9552 1.7152 17.0752-1.7152 5.12-3.4048 7.68-8.5248 7.68-14.4896V494.08c0-5.9648-3.4048-11.0848-7.68-14.5152zM551.2448 596.48l-114.3296 65.7152c-5.12 2.56-11.1104 2.56-16.2304 0a16.512 16.512 0 0 1-8.5248-14.5152v-130.56c0-5.9648 3.4048-11.0848 8.5248-14.5152 5.12-2.56 11.1104-2.56 16.2304 0l114.3296 65.7152c5.12 2.56 8.5504 8.5248 8.5504 14.5152-0.8704 5.12-3.4304 11.0848-8.5504 13.6448z m-47.7696-207.36a62.72 62.72 0 0 1-53.76-30.72 60.8768 60.8768 0 0 1 0-61.44 62.72 62.72 0 0 1 53.76-30.72 61.184 61.184 0 0 1 61.44 61.44 61.184 61.184 0 0 1-61.44 61.44z m-123.7504 0a44.6208 44.6208 0 0 1-44.3648-44.3648c0-23.9104 19.6352-44.3904 44.3648-44.3904 23.9104 0 44.3904 19.6352 44.3904 44.3904 0 24.7296-19.6352 44.3648-44.3904 44.3648z" fill="#FFFFFF" p-id="3430"></path></svg>