<?xml version="1.0" standalone="no"?><!DOCTYPE svg PUBLIC "-//W3C//DTD SVG 1.1//EN" "http://www.w3.org/Graphics/SVG/1.1/DTD/svg11.dtd"><svg t="1654508193767" class="icon" viewBox="0 0 1024 1024" version="1.1" xmlns="http://www.w3.org/2000/svg" p-id="14819" xmlns:xlink="http://www.w3.org/1999/xlink" width="128" height="128"><defs><style type="text/css">@font-face { font-family: feedback-iconfont; src: url("//at.alicdn.com/t/font_1031158_u69w8yhxdu.woff2?t=1630033759944") format("woff2"), url("//at.alicdn.com/t/font_1031158_u69w8yhxdu.woff?t=1630033759944") format("woff"), url("//at.alicdn.com/t/font_1031158_u69w8yhxdu.ttf?t=1630033759944") format("truetype"); }
</style></defs><path d="M310.857143 176.749714A134.107429 134.107429 0 0 0 444.964571 310.857143h134.070858A134.107429 134.107429 0 0 0 713.142857 176.749714h67.035429A134.107429 134.107429 0 0 1 914.285714 310.857143v469.321143A134.107429 134.107429 0 0 1 780.178286 914.285714H243.821714A134.107429 134.107429 0 0 1 109.714286 780.178286V310.857143a134.107429 134.107429 0 0 1 134.107428-134.107429H310.857143z m0 0h402.285714-402.285714z m234.678857 268.214857a33.536 33.536 0 1 0 0 67.035429h201.142857a33.536 33.536 0 0 0 0-67.035429h-201.142857z m0 201.142858a33.536 33.536 0 1 0 0 67.035428h201.142857a33.536 33.536 0 0 0 0-67.035428h-201.142857z m-220.781714-187.245715l-23.698286-23.734857a33.536 33.536 0 0 0-47.433143 47.433143l47.433143 47.396571a33.426286 33.426286 0 0 0 47.396571 0l94.829715-94.829714a33.536 33.536 0 1 0-47.433143-47.396571L324.754286 458.825143z m0 201.142857l-23.698286-23.734857a33.536 33.536 0 0 0-47.433143 47.433143l47.433143 47.396572a33.426286 33.426286 0 0 0 47.396571 0l94.829715-94.829715a33.536 33.536 0 1 0-47.433143-47.396571L324.754286 659.968zM444.964571 109.714286h134.070858a67.035429 67.035429 0 1 1 0 134.107428h-134.070858a67.035429 67.035429 0 0 1 0-134.107428z" p-id="14820"></path></svg>