<?xml version="1.0" standalone="no"?><!DOCTYPE svg PUBLIC "-//W3C//DTD SVG 1.1//EN" "http://www.w3.org/Graphics/SVG/1.1/DTD/svg11.dtd"><svg t="1654508048546" class="icon" viewBox="0 0 1024 1024" version="1.1" xmlns="http://www.w3.org/2000/svg" p-id="10209" width="128" height="128" xmlns:xlink="http://www.w3.org/1999/xlink"><defs><style type="text/css">@font-face { font-family: feedback-iconfont; src: url("//at.alicdn.com/t/font_1031158_u69w8yhxdu.woff2?t=1630033759944") format("woff2"), url("//at.alicdn.com/t/font_1031158_u69w8yhxdu.woff?t=1630033759944") format("woff"), url("//at.alicdn.com/t/font_1031158_u69w8yhxdu.ttf?t=1630033759944") format("truetype"); }
</style></defs><path d="M450.346667 256.213333a20.693333 20.693333 0 0 0-10.666667 1.493334c3.2-1.493333 7.04-2.133333 10.666667-1.493334z" p-id="10210"></path><path d="M874.666667 128H149.333333c-23.466667 0-42.666667 19.2-42.666666 42.666667v512c0 23.466667 19.2 42.666667 42.666666 42.666666h256v128h-128c-11.733333 0-21.333333 9.6-21.333333 21.333334s9.6 21.333333 21.333333 21.333333h469.333334c11.733333 0 21.333333-9.6 21.333333-21.333333s-9.6-21.333333-21.333333-21.333334h-128v-128h256c23.466667 0 42.666667-19.2 42.666666-42.666666V170.666667c0-23.466667-19.2-42.666667-42.666666-42.666667z m-106.666667 320h-94.293333l-79.146667 138.666667c-3.84 6.613333-10.88 10.666667-18.56 10.666666h-1.28a21.269333 21.269333 0 0 1-18.346667-13.013333l-111.146666-259.2-64 112.213333c-3.84 6.613333-10.88 10.666667-18.56 10.666667h-106.666667c-11.733333 0-21.333333-9.6-21.333333-21.333333s9.6-21.333333 21.333333-21.333334h94.293333l79.146667-138.666666a20.906667 20.906667 0 0 1 19.84-10.666667c8.106667 0.426667 15.146667 5.546667 18.346667 13.013333l111.146666 259.2 64-112.213333c3.84-6.613333 10.88-10.666667 18.56-10.666667h106.666667c11.733333 0 21.333333 9.6 21.333333 21.333334s-9.6 21.333333-21.333333 21.333333z" p-id="10211"></path></svg>