<?xml version="1.0" standalone="no"?><!DOCTYPE svg PUBLIC "-//W3C//DTD SVG 1.1//EN" "http://www.w3.org/Graphics/SVG/1.1/DTD/svg11.dtd"><svg t="1646372847253" class="icon" viewBox="0 0 1024 1024" version="1.1" xmlns="http://www.w3.org/2000/svg" p-id="15368" xmlns:xlink="http://www.w3.org/1999/xlink" width="128" height="128"><defs><style type="text/css"></style></defs><path d="M768 618.666667c-32 0-61.866667 10.666667-87.466667 27.733333l-53.333333-53.333333c21.333333-32 34.133333-70.4 34.133333-113.066667s-12.8-81.066667-34.133333-113.066667l44.8-44.8c19.2 12.8 40.533333 19.2 64 19.2 64 0 117.333333-53.333333 117.333333-117.333333S800 106.666667 736 106.666667 618.666667 160 618.666667 224c0 17.066667 4.266667 34.133333 10.666666 49.066667L584.533333 320c-34.133333-27.733333-76.8-42.666667-125.866666-42.666667-42.666667 0-81.066667 12.8-113.066667 34.133334l-78.933333-78.933334c6.4-12.8 10.666667-25.6 10.666666-40.533333 0-46.933333-38.4-85.333333-85.333333-85.333333S106.666667 145.066667 106.666667 192s38.4 85.333333 85.333333 85.333333c8.533333 0 17.066667-2.133333 25.6-4.266666l81.066667 81.066666c-27.733333 34.133333-42.666667 76.8-42.666667 125.866667s17.066667 89.6 42.666667 125.866667l-29.866667 29.866666c-14.933333-10.666667-34.133333-17.066667-55.466667-17.066666-59.733333 0-106.666667 46.933333-106.666666 106.666666s46.933333 106.666667 106.666666 106.666667 106.666667-46.933333 106.666667-106.666667c0-14.933333-2.133333-29.866667-8.533333-42.666666l34.133333-34.133334c32 21.333333 70.4 34.133333 113.066667 34.133334 46.933333 0 89.6-17.066667 125.866666-42.666667l55.466667 55.466667c-12.8 21.333333-19.2 46.933333-19.2 74.666666 0 83.2 66.133333 149.333333 149.333333 149.333334s149.333333-66.133333 149.333334-149.333334S851.2 618.666667 768 618.666667zM192 213.333333c-12.8 0-21.333333-8.533333-21.333333-21.333333s8.533333-21.333333 21.333333-21.333333 21.333333 8.533333 21.333333 21.333333-8.533333 21.333333-21.333333 21.333333z m160 298.666667c-17.066667 0-32-14.933333-32-32s14.933333-32 32-32 32 14.933333 32 32-14.933333 32-32 32z m106.666667 0c-17.066667 0-32-14.933333-32-32s14.933333-32 32-32 32 14.933333 32 32-14.933333 32-32 32z m106.666666 0c-17.066667 0-32-14.933333-32-32s14.933333-32 32-32 32 14.933333 32 32-14.933333 32-32 32zM768 853.333333c-46.933333 0-85.333333-38.4-85.333333-85.333333s38.4-85.333333 85.333333-85.333333 85.333333 38.4 85.333333 85.333333-38.4 85.333333-85.333333 85.333333z" p-id="15369" fill="#dbdbdb"></path></svg>