<?xml version="1.0" standalone="no"?><!DOCTYPE svg PUBLIC "-//W3C//DTD SVG 1.1//EN" "http://www.w3.org/Graphics/SVG/1.1/DTD/svg11.dtd"><svg t="1646373395495" class="icon" viewBox="0 0 1024 1024" version="1.1" xmlns="http://www.w3.org/2000/svg" p-id="26576" xmlns:xlink="http://www.w3.org/1999/xlink" width="128" height="128"><defs><style type="text/css"></style></defs><path d="M627.2 960H166.4c-25.6 0-51.2-12.8-70.4-25.6-19.2-19.2-32-44.8-32-70.4v-115.2c6.4-19.2 12.8-38.4 32-51.2 12.8-6.4 19.2-12.8 32-12.8s25.6 6.4 44.8 12.8H192c12.8 6.4 19.2 6.4 32 6.4s25.6 0 32-6.4c12.8-6.4 19.2-12.8 25.6-19.2 6.4-6.4 12.8-19.2 19.2-25.6 6.4-12.8 6.4-19.2 6.4-32s0-25.6-6.4-32c-6.4-12.8-12.8-19.2-19.2-25.6s-19.2-12.8-25.6-19.2c-12.8-6.4-19.2-6.4-32-6.4s-19.2 0-32 6.4h-6.4c-6.4 6.4-19.2 6.4-25.6 12.8-12.8 6.4-25.6 6.4-38.4 6.4-19.2 0-32-12.8-38.4-25.6-6.4-12.8-12.8-25.6-12.8-44.8V396.8c0-25.6 12.8-51.2 32-70.4 19.2-19.2 44.8-32 70.4-32H256c-6.4-19.2-6.4-32-6.4-51.2 0-25.6 6.4-51.2 12.8-70.4l38.4-57.6c19.2-19.2 38.4-32 57.6-38.4C384 64 403.2 64 428.8 64s51.2 6.4 70.4 12.8l57.6 38.4c19.2 19.2 32 38.4 38.4 57.6 12.8 25.6 12.8 44.8 12.8 70.4 0 19.2 0 38.4-6.4 51.2h25.6c25.6 0 51.2 12.8 70.4 32 19.2 19.2 25.6 44.8 25.6 70.4v64c19.2-6.4 38.4-6.4 57.6-6.4 25.6 0 44.8 6.4 70.4 12.8 19.2 6.4 38.4 25.6 57.6 38.4 19.2 19.2 32 38.4 38.4 57.6 6.4 19.2 12.8 44.8 12.8 70.4 0 25.6-6.4 51.2-12.8 70.4-6.4 19.2-19.2 38.4-38.4 57.6-19.2 19.2-38.4 32-57.6 38.4-19.2 6.4-44.8 12.8-70.4 12.8-19.2 0-38.4 0-57.6-6.4v51.2c0 25.6-12.8 51.2-25.6 70.4-19.2 19.2-44.8 32-70.4 32z m-486.4-192v96c0 6.4 0 12.8 6.4 19.2 6.4 6.4 12.8 6.4 19.2 6.4h460.8c6.4 0 12.8 0 19.2-6.4 6.4-6.4 6.4-12.8 6.4-19.2v-198.4l64 51.2c6.4 6.4 19.2 12.8 32 19.2 12.8 6.4 25.6 6.4 38.4 6.4 12.8 0 25.6 0 38.4-6.4 12.8-6.4 25.6-12.8 32-25.6 12.8-12.8 19.2-19.2 25.6-32 6.4-12.8 6.4-25.6 6.4-38.4 0-12.8 0-25.6-6.4-38.4-6.4-12.8-12.8-25.6-25.6-32-12.8-12.8-19.2-19.2-32-25.6-12.8-6.4-25.6-6.4-38.4-6.4-12.8 0-25.6 0-38.4 6.4-12.8 6.4-25.6 12.8-32 19.2l-64 51.2V409.6c0-6.4 0-12.8-6.4-19.2C640 384 640 384 627.2 384H454.4l51.2-64c19.2-19.2 25.6-38.4 25.6-64 0-12.8 0-32-6.4-44.8-6.4-12.8-12.8-25.6-25.6-32-12.8-12.8-19.2-19.2-32-25.6-12.8-6.4-25.6-6.4-44.8-6.4-12.8 0-25.6 0-44.8 6.4-12.8 6.4-25.6 12.8-32 25.6-12.8 12.8-19.2 19.2-25.6 32-6.4 12.8-6.4 25.6-6.4 44.8 0 12.8 0 25.6 6.4 38.4 6.4 12.8 12.8 25.6 19.2 32l51.2 64H166.4c-6.4 0-12.8 0-19.2 6.4-6.4 6.4-6.4 12.8-6.4 19.2v89.6s6.4 0 6.4-6.4c6.4 0 6.4-6.4 12.8-6.4 19.2-6.4 38.4-12.8 64-12.8 19.2 0 44.8 6.4 64 12.8 19.2 6.4 38.4 19.2 51.2 32 12.8 12.8 25.6 32 32 51.2 6.4 19.2 12.8 38.4 12.8 64 0 19.2-6.4 44.8-12.8 64-6.4 19.2-19.2 38.4-32 51.2-12.8 12.8-32 25.6-51.2 32-19.2 6.4-38.4 12.8-64 12.8-19.2 0-44.8-6.4-64-12.8-6.4-12.8-12.8-19.2-19.2-19.2z" fill="#dbdbdb" p-id="26577"></path></svg>