<?xml version="1.0" standalone="no"?><!DOCTYPE svg PUBLIC "-//W3C//DTD SVG 1.1//EN" "http://www.w3.org/Graphics/SVG/1.1/DTD/svg11.dtd"><svg t="1640534278171" class="icon" viewBox="0 0 1024 1024" version="1.1" xmlns="http://www.w3.org/2000/svg" p-id="22249" xmlns:xlink="http://www.w3.org/1999/xlink" width="128" height="128"><defs><style type="text/css"></style></defs><path d="M146.285714 109.714286h278.857143a36.571429 36.571429 0 0 1 36.571429 36.571428v278.857143a36.571429 36.571429 0 0 1-36.571429 36.571429H146.285714a36.571429 36.571429 0 0 1-36.571428-36.571429V146.285714a36.571429 36.571429 0 0 1 36.571428-36.571428z m0 452.571428h278.857143a36.571429 36.571429 0 0 1 36.571429 36.571429V877.714286a36.571429 36.571429 0 0 1-36.571429 36.571428H146.285714a36.571429 36.571429 0 0 1-36.571428-36.571428v-278.857143a36.571429 36.571429 0 0 1 36.571428-36.571429zM598.857143 109.714286H877.714286a36.571429 36.571429 0 0 1 36.571428 36.571428v278.857143a36.571429 36.571429 0 0 1-36.571428 36.571429h-278.857143a36.571429 36.571429 0 0 1-36.571429-36.571429V146.285714a36.571429 36.571429 0 0 1 36.571429-36.571428z m0 452.571428H877.714286a36.571429 36.571429 0 0 1 36.571428 36.571429V877.714286a36.571429 36.571429 0 0 1-36.571428 36.571428h-278.857143a36.571429 36.571429 0 0 1-36.571429-36.571428v-278.857143a36.571429 36.571429 0 0 1 36.571429-36.571429z" p-id="22250"></path></svg>