<?xml version="1.0" standalone="no"?><!DOCTYPE svg PUBLIC "-//W3C//DTD SVG 1.1//EN" "http://www.w3.org/Graphics/SVG/1.1/DTD/svg11.dtd"><svg t="1646632360065" class="icon" viewBox="0 0 1024 1024" version="1.1" xmlns="http://www.w3.org/2000/svg" p-id="26932" xmlns:xlink="http://www.w3.org/1999/xlink" width="128" height="128"><defs><style type="text/css"></style></defs><path d="M873.691429 0c42.496 0 76.507429 34.706286 77.165714 76.617143v455.021714l-333.677714-1.097143a87.771429 87.771429 0 0 0-88.027429 86.637715L523.776 1024H149.650286A76.653714 76.653714 0 0 1 73.142857 947.382857V76.617143C73.142857 34.706286 107.154286 0 149.650286 0H873.691429z m-113.152 425.764571c0-21.942857-17.115429-40.594286-37.485715-40.594285H257.572571c-20.406857 0-37.485714 17.956571-37.485714 40.594285 0 21.942857 17.078857 40.594286 37.485714 40.594286H723.017143c21.028571 0 37.485714-17.956571 37.485714-40.594286zM256.914286 538.916571c-20.406857 0-37.485714 17.956571-37.485715 40.594286 0 21.942857 17.078857 40.594286 37.485715 40.594286h183.405714c20.406857 0 37.485714-17.956571 37.485714-40.594286 0-21.942857-17.078857-40.594286-37.485714-40.594286H256.914286z m0.658285-238.299428H723.017143c20.370286 0 37.485714-17.956571 37.485714-40.594286 0-21.942857-17.115429-40.594286-37.485714-40.594286H257.572571c-20.406857 0-37.485714 17.956571-37.485714 40.594286 0 22.637714 17.078857 40.594286 37.485714 40.594286z" p-id="26933"></path><path d="M826.514286 786.285714h85.686857a36.571429 36.571429 0 0 1 28.745143 59.172572l-125.915429 160.219428a36.571429 36.571429 0 0 1-57.490286 0l-125.915428-160.219428a36.571429 36.571429 0 0 1 28.745143-59.172572H753.371429v-182.857143a36.571429 36.571429 0 0 1 73.142857 0v182.857143z" p-id="26934"></path></svg>