<?xml version="1.0" standalone="no"?><!DOCTYPE svg PUBLIC "-//W3C//DTD SVG 1.1//EN" "http://www.w3.org/Graphics/SVG/1.1/DTD/svg11.dtd"><svg t="1642068336205" class="icon" viewBox="0 0 1024 1024" version="1.1" xmlns="http://www.w3.org/2000/svg" p-id="13189" xmlns:xlink="http://www.w3.org/1999/xlink" width="128" height="128"><defs><style type="text/css"></style></defs><path d="M837.7 897H211.3c-32.2 0-58.4-26.2-58.4-58.4V468.9c0-32.2 26.2-58.4 58.4-58.4h626.4c32.2 0 58.4 26.2 58.4 58.4v369.6c0 32.3-26.2 58.5-58.4 58.5zM211.3 453.2c-8.7 0-15.8 7.1-15.8 15.8v369.6c0 8.7 7.1 15.7 15.8 15.7h626.4c8.5 0 15.8-7.2 15.8-15.7V468.9c0-8.5-7.2-15.8-15.8-15.8H211.3z" fill="#cdcdcd" p-id="13190"></path><path d="M187.1 441.5c-17.7 0-33.7-12.2-37.8-30.1l-20.5-90.9c-4.7-20.8 8.5-41.5 29.3-46.2L807.7 128c9.9-2.3 20.3-0.5 29.1 5s14.8 14.1 17.1 24.2l20.5 90.9c2.3 10 0.5 20.3-5 29.1s-14.1 14.9-24.2 17.1L195.5 440.6c-2.8 0.6-5.6 0.9-8.4 0.9zM171.3 315l18.7 83.1 642.9-144.8-19.8-82.8L171.3 315zM185.7 578.5h677.6v42.7H185.7z" fill="#cdcdcd" p-id="13191"></path><path d="M302.204 579.604l169.35-169.35 30.193 30.193-169.35 169.35zM585.716 588.968l174.796-174.795 30.193 30.194L615.91 619.162z" fill="#cdcdcd" p-id="13192"></path></svg>