<?xml version="1.0" standalone="no"?><!DOCTYPE svg PUBLIC "-//W3C//DTD SVG 1.1//EN" "http://www.w3.org/Graphics/SVG/1.1/DTD/svg11.dtd"><svg t="1676963891061" class="icon" viewBox="0 0 1024 1024" version="1.1" xmlns="http://www.w3.org/2000/svg" p-id="18978" xmlns:xlink="http://www.w3.org/1999/xlink" width="128" height="128"><path d="M877.1 950.7H148.9c-41.2 0-74.8-33.5-74.8-74.8V147.6c0-41.2 33.5-74.8 74.8-74.8h728.3c41.2 0 74.8 33.5 74.8 74.8v728.3c-0.1 41.3-33.6 74.8-74.9 74.8zM148.9 118.4c-16.1 0-29.3 13.1-29.3 29.3V876c0 16.1 13.1 29.3 29.3 29.3h728.3c16.1 0 29.3-13.1 29.3-29.3V147.6c0-16.1-13.1-29.3-29.3-29.3H148.9z" fill="#1890ff" p-id="18979"></path><path d="M740.6 534.6H285.4c-12.6 0-22.8-10.2-22.8-22.8s10.2-22.8 22.8-22.8h455.2c12.6 0 22.8 10.2 22.8 22.8s-10.2 22.8-22.8 22.8z" fill="#1890ff" p-id="18980"></path></svg>