<?xml version="1.0" standalone="no"?><!DOCTYPE svg PUBLIC "-//W3C//DTD SVG 1.1//EN" "http://www.w3.org/Graphics/SVG/1.1/DTD/svg11.dtd"><svg t="1646372713608" class="icon" viewBox="0 0 1024 1024" version="1.1" xmlns="http://www.w3.org/2000/svg" p-id="13016" xmlns:xlink="http://www.w3.org/1999/xlink" width="128" height="128"><defs><style type="text/css"></style></defs><path d="M512 960c-247.424 0-448-200.512-448-448s200.576-448 448-448c247.488 0 448 200.512 448 448s-200.512 448-448 448zM512 138.88v-0.256C297.92 138.688 138.88 306.304 138.88 512S306.304 885.12 512 885.12s373.12-167.36 373.12-373.12S717.76 138.88 512 138.88z m-66.048 554.816a26.88 26.88 0 0 1-30.336 0.832 35.456 35.456 0 0 1-15.424-29.952V321.984c0-12.416 5.888-23.872 15.424-29.952a26.88 26.88 0 0 1 30.4 0.896l238.912 171.328c8.64 6.272 13.952 17.28 13.952 29.056s-5.312 22.784-14.016 28.992l-238.912 171.392z" p-id="13017"></path></svg>