<?xml version="1.0" standalone="no"?><!DOCTYPE svg PUBLIC "-//W3C//DTD SVG 1.1//EN" "http://www.w3.org/Graphics/SVG/1.1/DTD/svg11.dtd"><svg t="1646632203646" class="icon" viewBox="0 0 1024 1024" version="1.1" xmlns="http://www.w3.org/2000/svg" p-id="25228" xmlns:xlink="http://www.w3.org/1999/xlink" width="128" height="128"><defs><style type="text/css"></style></defs><path d="M136.5 110.9c21.2-25.3 53.7-40.7 86.7-41h557.1c14.4-0.3 28.8 2.1 42.3 7 26.7 9.6 49.5 29.5 62.7 54.6 9.1 16.9 13.6 36.1 13.6 55.2v397c-18.6-9.8-36.4-21-55.7-29.3-27.3-11.6-56.9-17.9-86.5-18.4-34-0.6-68.1 6.3-99.1 20.2-31.4 14.1-59.6 35.3-81.9 61.5-20.6 24.1-36.2 52.5-45.4 82.9-16.3 53-12.7 111.8 10.1 162.4 8.1 17.9 18.3 34.8 30.6 50.2 10.7 13.2 21.5 26.3 32.2 39.6h-376c-12.3 0.2-24.7-1.5-36.5-5.1-25.3-7.7-47.7-24.5-62.3-46.5-12-17.8-18.8-39.1-19.4-60.6v-653c-0.6-27.9 9.5-55.6 27.5-76.7m176.3 114.7c-10.3 2.2-18.3 12.1-18 22.7-0.4 11.9 9.7 22.9 21.6 23.3h374.9c6.2-0.1 12.2-3.3 16.3-7.9 6.4-7.2 7.5-18.5 2.7-26.8-4-7.3-12.2-12-20.5-11.9H319c-2.1 0-4.2 0.2-6.2 0.6m-0.9 161.5c-4.9 1.3-9.3 4.3-12.3 8.3-6.4 8.1-6.3 20.6 0.2 28.7 4.5 5.8 11.9 9.1 19.2 8.9h370.8c6.3 0 12.5-2.5 16.9-7 7.2-7.1 8.7-19 3.8-27.7-3.7-6.9-11.2-11.7-19.1-11.9H316.5c-1.6 0-3.2 0.2-4.6 0.7m2.3 160.5c-10.1 0.8-18.7 9.5-19.3 19.6-0.1 4.6-0.4 9.4 1.5 13.7 3.2 8 11.5 13.5 20.1 13.4h143.3c9.6 0 18.7-7.3 20.6-16.8 2.5-11.3-4-23.6-14.6-27.9-5.5-2.6-11.7-1.9-17.6-1.9-44.7-0.2-89.4-0.2-134-0.1m-2.3 161.9c-6.2 1.7-11.6 6.1-14.5 11.8-3.6 6.8-3.4 15.5 0.4 22.2 3.9 7 11.5 11.7 19.5 11.8h94.2c6.2 0 12.4-2.7 16.6-7.3 7-7.1 8.4-18.9 3.4-27.5-3.9-7.1-11.9-11.9-20-11.8h-88.2c-3.9 0-7.8-0.3-11.4 0.8z" p-id="25229"></path><path d="M747.3 559.2c47.5-1.4 95.3 14.1 132.9 43.2 25.6 19.6 46.5 45.2 60.6 74.2 16.1 32.8 23.1 69.9 20.6 106.3-2.1 31.6-11.6 62.7-27.6 90.1-16.1 27.8-38.7 51.8-65.4 69.5-24.8 16.5-53.3 27.6-82.8 32.2-39 6.2-79.7 1.2-115.9-14.6-27.8-12-52.9-30.2-73-52.8-24.2-27.1-41.2-60.6-48.6-96.2-7.1-34.2-5.7-70.2 4.5-103.6 8.1-26.9 21.8-52.1 39.8-73.7 19.9-23.7 45-43 73.1-55.9 25.6-11.5 53.7-17.9 81.8-18.7m88 133c-31.3 34.5-62.6 68.9-93.8 103.5-24.5-22-48.8-44.2-73.3-66.3-4.2-3.6-9.8-5.7-15.3-5.5-8.5-0.1-16.8 5.1-20.5 12.7-4.7 9-2.6 21 5.1 27.7 28.5 25.8 57 51.7 85.5 77.5 3.1 2.7 6 5.9 9.9 7.7 6.7 3.2 15.1 3 21.5-0.8 4.2-2.2 7.1-6.1 10.3-9.6l101.4-111.9c2.5-2.8 5.4-5.5 6.9-9.1 4.3-8.7 2.4-20-4.6-26.6-8.5-9-24.7-8.7-33.1 0.7z" p-id="25230"></path></svg>