<?xml version="1.0" standalone="no"?><!DOCTYPE svg PUBLIC "-//W3C//DTD SVG 1.1//EN" "http://www.w3.org/Graphics/SVG/1.1/DTD/svg11.dtd"><svg t="1646374389806" class="icon" viewBox="0 0 1024 1024" version="1.1" xmlns="http://www.w3.org/2000/svg" p-id="27033" xmlns:xlink="http://www.w3.org/1999/xlink" width="128" height="128"><defs><style type="text/css"></style></defs><path d="M477.866667 308.309333a44.117333 44.117333 0 0 0-51.072 35.797334l-7.552 42.666666H368.554667a44.117333 44.117333 0 0 0 0 88.32h35.157333l-12.416 70.4H329.770667a44.117333 44.117333 0 0 0 0 88.192h45.952l-5.461334 30.890667a44.117333 44.117333 0 1 0 86.912 15.36l8.149334-46.250667h46.165333l-5.461333 30.890667a44.117333 44.117333 0 1 0 86.912 15.36l8.106666-46.250667h54.186667a44.117333 44.117333 0 0 0 0-88.234666h-38.570667l12.373334-70.4h64.938666a44.117333 44.117333 0 0 0 0-88.234667h-49.365333l4.821333-27.392a44.117333 44.117333 0 1 0-86.869333-15.36l-7.552 42.752h-46.165333l4.864-27.392a44.117333 44.117333 0 0 0-35.84-51.114667z m2.986666 237.141334l12.458667-70.4h46.122667l-12.373334 70.4H480.853333z" p-id="27034"></path><path d="M512 80C273.408 80 80 273.408 80 512a430.805333 430.805333 0 0 0 65.877333 229.418667 281.813333 281.813333 0 0 1-2.816 16.170666c-4.096 20.693333-11.605333 51.2-22.698666 91.861334a44.117333 44.117333 0 0 0 54.186666 54.186666 1453.226667 1453.226667 0 0 1 91.861334-22.698666c6.869333-1.365333 12.202667-2.261333 16.213333-2.816A430.848 430.848 0 0 0 512 944c238.506667 0 431.957333-193.408 431.957333-432S750.592 80 512 80zM168.234667 512a343.765333 343.765333 0 1 1 152.789333 285.866667 53.162667 53.162667 0 0 0-25.386667-8.405334 94.293333 94.293333 0 0 0-14.976 0.128c-8.96 0.725333-19.669333 2.432-31.445333 4.778667-7.466667 1.493333-15.786667 3.328-25.045333 5.461333 2.133333-9.216 3.968-17.578667 5.461333-25.045333 2.346667-11.776 4.053333-22.485333 4.778667-31.445333 0.384-4.394667 0.597333-9.642667 0.128-14.976a53.12 53.12 0 0 0-8.405334-25.386667A342.741333 342.741333 0 0 1 168.234667 512z" p-id="27035"></path></svg>