<?xml version="1.0" standalone="no"?><!DOCTYPE svg PUBLIC "-//W3C//DTD SVG 1.1//EN" "http://www.w3.org/Graphics/SVG/1.1/DTD/svg11.dtd"><svg t="1694102575985" class="icon" viewBox="0 0 1024 1024" version="1.1" xmlns="http://www.w3.org/2000/svg" p-id="4034" xmlns:xlink="http://www.w3.org/1999/xlink" width="200" height="200"><path d="M937.6 326.4c-20.8-28.8-60.8-35.2-89.6-16l-64 44.8V352c0-88-72-160-160-160H240C152 192 80 264 80 352v320c0 88 72 160 160 160h384c84.8 0 153.6-65.6 160-147.2l65.6 44.8c11.2 8 24 11.2 36.8 11.2 35.2 0 64-28.8 64-64V363.2c-1.6-12.8-4.8-25.6-12.8-36.8zM720 672c0 52.8-43.2 96-96 96H240c-52.8 0-96-43.2-96-96V352c0-52.8 43.2-96 96-96h384c52.8 0 96 43.2 96 96v320z m164.8 4.8L784 606.4V433.6l100.8-70.4v313.6z" fill="#cdcdcd" p-id="4035"></path><path d="M288 400m-48 0a48 48 0 1 0 96 0 48 48 0 1 0-96 0Z" fill="#cdcdcd" p-id="4036"></path></svg>