<?xml version="1.0" standalone="no"?><!DOCTYPE svg PUBLIC "-//W3C//DTD SVG 1.1//EN" "http://www.w3.org/Graphics/SVG/1.1/DTD/svg11.dtd"><svg t="1695808416395" class="icon" viewBox="0 0 1024 1024" version="1.1" xmlns="http://www.w3.org/2000/svg" p-id="6545" xmlns:xlink="http://www.w3.org/1999/xlink" width="200" height="200"><path d="M760.3712 954.624H274.1248c-107.264 0-194.2016-86.9376-194.2016-194.2016V274.1248c0-107.264 86.9376-194.2016 194.2016-194.2016h486.2464c107.264 0 194.2016 86.9376 194.2016 194.2016v486.2464c0.0512 107.264-86.9376 194.2528-194.2016 194.2528z" fill="#6FA7FF" p-id="6546"></path><path d="M830.208 346.2656c-17.7664-10.24-38.912-10.24-56.6784 0l-52.6848 30.4128v-8.6528c0-66.048-53.7088-119.7568-119.7568-119.7568H311.2448c-66.048 0-119.7568 53.7088-119.7568 119.7568v300.1856c0 66.048 53.7088 119.7568 119.7568 119.7568h172.6464c14.1312 0 25.6-11.4688 25.6-25.6s-11.4688-25.6-25.6-25.6H311.2448c-37.7856 0-68.5568-30.7712-68.5568-68.5568V368.0256c0-37.7856 30.7712-68.5568 68.5568-68.5568h289.8944c37.7856 0 68.5568 30.7712 68.5568 68.5568v300.1856c0 37.7856-30.7712 68.5568-68.5568 68.5568-14.1312 0-25.6 11.4688-25.6 25.6s11.4688 25.6 25.6 25.6c66.048 0 119.7568-53.7088 119.7568-119.7568v-8.6528l52.6848 30.4128c8.8576 5.12 18.5856 7.68 28.3136 7.68 9.728 0 19.456-2.56 28.3136-7.68 17.7152-10.24 28.3136-28.5696 28.3136-49.1008V395.3664c0.0512-20.48-10.5472-38.8608-28.3136-49.1008z m-22.8352 294.6048c0 2.6112-1.4848 3.9936-2.7136 4.7104-1.2288 0.7168-3.2256 1.3312-5.4784 0l-78.2848-45.2096V435.8144l78.2848-45.2096c2.2528-1.28 4.1984-0.7168 5.4784 0 1.2288 0.7168 2.7136 2.1504 2.7136 4.7104v245.5552z" fill="#F7F8F8" p-id="6547"></path><path d="M323.0208 363.6224c-14.1312 0-25.6 11.4688-25.6 25.6s11.4688 25.6 25.6 25.6H425.984c14.1312 0 25.6-11.4688 25.6-25.6s-11.4688-25.6-25.6-25.6H323.0208z" fill="#F7F8F8" p-id="6548"></path></svg>