<?xml version="1.0" standalone="no"?><!DOCTYPE svg PUBLIC "-//W3C//DTD SVG 1.1//EN" "http://www.w3.org/Graphics/SVG/1.1/DTD/svg11.dtd"><svg t="1622135369729" class="icon" viewBox="0 0 1122 1024" version="1.1" xmlns="http://www.w3.org/2000/svg" p-id="19568" xmlns:xlink="http://www.w3.org/1999/xlink" width="219.140625" height="200"><defs><style type="text/css"></style></defs><path d="M561.152 910.336c-7.68 0-25.088-13.824-53.248-41.984-27.648-28.16-41.472-45.568-41.472-53.248 0-12.288 11.776-22.528 35.84-30.72s43.52-12.8 59.392-12.8c15.872 0 35.328 4.096 59.392 12.8s35.84 18.432 35.84 30.72c0 7.68-13.824 25.6-41.472 53.248-29.184 28.16-46.592 41.984-54.272 41.984z" fill="#409EFF" p-id="19569" data-spm-anchor-id="a313x.7781069.0.i63" class="selected"></path><path d="M715.264 755.712c-0.512 0-8.192-4.608-23.04-14.336-14.336-9.728-33.792-18.944-57.856-28.672-24.064-9.728-48.64-14.336-73.216-14.336-24.576 0-49.152 4.608-73.216 14.336-24.064 9.728-43.52 18.944-57.856 28.672-14.336 9.728-22.016 14.336-23.04 14.336-6.656 0-24.576-14.336-53.248-43.008s-43.008-46.08-43.008-53.248c0-5.12 2.048-9.216 5.632-13.312 29.696-29.184 67.072-52.224 112.128-69.12s89.088-25.088 133.12-25.088c44.032 0 88.064 8.192 133.12 25.088 45.056 16.896 82.432 39.936 112.128 69.12 3.584 3.584 5.632 8.192 5.632 13.312 0 6.656-14.336 24.576-43.008 53.248-29.696 28.672-47.104 43.008-54.272 43.008z" fill="#e6e6e6" p-id="19570" data-spm-anchor-id="a313x.7781069.0.i64" class=""></path><path d="M871.424 600.064c-4.096 0-8.704-1.536-13.312-4.608-51.712-39.936-99.84-69.632-143.872-88.064s-95.232-28.16-153.088-28.16c-32.256 0-65.024 4.096-97.28 12.8S402.944 510.464 378.88 522.24c-24.064 11.776-45.568 23.552-65.024 35.328s-34.304 22.016-45.056 30.208c-11.264 8.192-16.896 12.8-17.92 12.8-6.656 0-24.064-14.336-52.736-43.008s-43.008-46.08-43.008-53.248c0-4.608 2.048-8.704 5.632-12.8 50.176-50.176 111.104-89.088 182.784-117.248 71.68-27.648 143.872-41.472 217.088-41.472s145.408 13.824 217.088 41.472c71.68 27.648 132.608 67.072 182.784 117.248 3.584 3.584 5.632 8.192 5.632 12.8 0 6.656-14.336 24.576-43.008 53.248s-45.056 42.496-51.712 42.496z" fill="#e6e6e6" p-id="19571" data-spm-anchor-id="a313x.7781069.0.i65" class=""></path><path d="M1026.048 445.44c-4.096 0-8.192-1.536-12.8-5.12-68.096-59.904-138.752-104.96-212.48-135.168-73.216-30.208-153.6-45.568-240.128-45.568-87.04 0-166.912 15.36-240.128 45.568S176.64 380.416 108.544 440.32c-4.096 3.584-8.192 5.12-12.8 5.12-6.656 0-24.064-14.336-52.736-43.008S0 356.352 0 349.184c0-5.12 2.048-9.216 5.632-13.312C76.8 265.216 161.792 210.432 260.096 171.52s198.656-58.368 301.056-58.368 202.752 19.456 301.056 58.368 183.296 93.696 254.464 164.352c3.584 3.584 5.632 8.192 5.632 13.312 0 6.656-14.336 24.576-43.008 53.248-28.672 28.672-46.592 43.008-53.248 43.008z" fill="#e6e6e6" p-id="19572" data-spm-anchor-id="a313x.7781069.0.i66" class=""></path></svg>