<?xml version="1.0" standalone="no"?><!DOCTYPE svg PUBLIC "-//W3C//DTD SVG 1.1//EN" "http://www.w3.org/Graphics/SVG/1.1/DTD/svg11.dtd"><svg t="1650119020631" class="icon" viewBox="0 0 1037 1024" version="1.1" xmlns="http://www.w3.org/2000/svg" p-id="15187" xmlns:xlink="http://www.w3.org/1999/xlink" width="129.625" height="128"><defs><style type="text/css">@font-face { font-family: feedback-iconfont; src: url("//at.alicdn.com/t/font_1031158_u69w8yhxdu.woff2?t=1630033759944") format("woff2"), url("//at.alicdn.com/t/font_1031158_u69w8yhxdu.woff?t=1630033759944") format("woff"), url("//at.alicdn.com/t/font_1031158_u69w8yhxdu.ttf?t=1630033759944") format("truetype"); }
</style></defs><path d="M665.600029 614.4c70.4-128 96-249.6 96-249.6l-12.8 0 0 0L640.000029 364.8 524.800029 364.8 524.800029 275.2l281.6 0L806.400029 236.8 524.800029 236.8 524.800029 102.4l-128 0 0 134.4-256 0 0 38.4 256 0 0 89.6L179.200029 364.8l0 38.4 441.6 0c0 6.4 0 6.4-6.4 12.8C614.400029 460.8 582.400029 524.8 556.800029 576 230.400029 448 134.400029 524.8 108.800029 537.6c-217.6 153.6-12.8 345.6 19.2 339.2 230.4 51.2 377.6-44.8 480-166.4 6.4 6.4 12.8 6.4 19.2 6.4 70.4 38.4 409.6 198.4 409.6 198.4s0-140.8 0-192C985.600029 723.2 800.000029 659.2 665.600029 614.4zM499.200029 672c-160 204.8-352 140.8-384 128C38.400029 780.8 12.800029 640 108.800029 595.2c160-51.2 300.8 6.4 403.2 57.6C505.600029 665.6 499.200029 672 499.200029 672z" p-id="15188" fill="#ffffff"></path></svg>